<svg xmlns="http://www.w3.org/2000/svg" viewBox="0 0 200 200" fill="none">
  <circle cx="100" cy="100" r="90" fill="#C4942C" opacity="0.08"/>
  <circle cx="100" cy="100" r="65" fill="#C4942C" opacity="0.15"/>
  <path d="M100 50C78 50 60 68 60 90v30a15 15 0 0 0-12 14.5c0 8.3 6.7 15 15 15h4c3.3 0 6-2.7 6-6v-38c0-3.3-2.7-6-6-6h-4v-9.5c0-19 15-34 34-34s34 15 34 34v9.5h-4c-3.3 0-6 2.7-6 6v38c0 3.3 2.7 6 6 6h4c8.3 0 15-6.7 15-15 0-2-.5-4-1.2-5.8" stroke="#C4942C" stroke-width="5" stroke-linecap="round" stroke-linejoin="round"/>
  <path d="M140 155.5v6c0 8.3-6.7 15-15 15h-10" stroke="#C4942C" stroke-width="5" stroke-linecap="round"/>
</svg>
